<svg id="Layer_1" data-name="Layer 1" xmlns="http://www.w3.org/2000/svg" viewBox="0 0 1056.11 408.04"><title>Artboard 3@1x</title><g id="_2ubOrs" data-name="2ubOrs"><path d="M871.6,181.59c-3.28-1.29-6.08-.58-9.18.78-8.45,3.72-16.74,7.81-25.43,11-3.34,1.24-6.26,3.79-9.89,4.86-1.63.48-1.92,2,.12,2.69,8.5,3,16.41,7.57,25.47,9.07,5.16.85,9.42,4.09,14.16,6.1a122.58,122.58,0,0,1,23.83,13.33c8.74,6.32,19.19,10.78,25.53,20,5.26,7.68,12.95,13.25,17.59,21.48,4.13,7.32-.07,18.46-8.28,21.43-8.78,3.17-16.65,1.4-24.22-3.37-1.46-.92-2.88-2.16-4.48-2.54-9.74-2.34-17-9.11-25.4-13.88-9.2-5.23-16.88-12.56-25.23-18.88-4.32-3.27-9.41-6-13.29-10.44-2.38-2.74-5.68-6.17-9.82-7.54-3.78-1.25-5.42-4.83-7.56-7.61-4-5.18-9.12-8.69-14.51-12a2.45,2.45,0,0,1-.91-.74c-.9-1.7-1-4.45-3.38-4.49a25.65,25.65,0,0,0-8.55,1.36c-9.8,3.38-19.91,5.47-29.94,7.91-3.48.85-6.89,2-10.38,2.78-2.07.49-2.44,1-.92,2.77,4,4.7,9,8.13,14.17,11.19,4.94,2.92,9,6.88,13.43,10.34,3.92,3.06,7.72,6.46,11.74,9.34a205.56,205.56,0,0,1,28.55,25.27c4.57,4.78,8.39,10.39,14.45,13.53,2.92,1.51,3.93,4.55,5.78,6.83a108.78,108.78,0,0,0,10,11.07c4.47,4.19,6.88,9.55,9.37,15.08,2.06,4.57,2.59,9.63,5.82,13.95,2.34,3.13,2.82,7.69,1.39,12.23-1.65,5.23-3.55,10.18-6.7,14.66-2.55,3.62-6.75,3.18-10.11,3.2a36.57,36.57,0,0,1-13.84-3c-13.11-5.3-21.49-16.7-32.66-24.48-4.12-2.87-6.43-8.23-9.93-12.13a99.25,99.25,0,0,0-12.9-12,31.59,31.59,0,0,1-7.54-9.2c-3-4.95-5.27-10.64-10.81-14.06s-5.82-10.28-8.75-15.45a78.84,78.84,0,0,1-5.87-14c-2.08-6.23-7.42-10.1-9.77-15.83-2.12-5.17-4.26-10.22-7.56-14.77-1.53-2.12-.72-4.9-1.07-7.37-.39-2.74-1.94-3.63-4.13-2.76-6.42,2.55-13.29,1.3-19.71,2.62-5.26,1.08-10.51.86-15.71,1.42-5,.54-10.26.63-15.4.85-.8,0-1.72-.35-2.37-.06-1.43.63-3.57-.16-4.33,1.45-.92,2,1,3.15,2.09,4.39,7.29,8.6,15.27,16.58,19.85,27.27,2.21,5.17,7.59,8.35,10.63,13.19a169.62,169.62,0,0,1,9,15.5c1.83,3.73,4.42,7.09,6.78,10.54,5.41,7.94,10,16.16,12.38,25.67,1.31,5.23,4.78,9.81,6.56,15.06,1.54,4.53,1.32,9.17,2.06,13.73.27,1.66-.4,3.44-.42,5.17-.07,6.18-2.85,10.58-8.62,12.78-2.11.8-2,3.88-5.11,3.77-7.58-.26-15.89.43-21.56-4.85-6.65-6.18-14.83-11.11-18.33-20.64-1.55-4.24-5.73-7.78-8.44-11.83s-5.56-8.11-7.07-13.12c-1.1-3.66-4-7-4.76-10.91-1.85-9.52-6.63-18.15-8.22-27.74a8.66,8.66,0,0,0-.93-2.64c-3.13-5.8-3.38-12.25-4.49-18.55-.87-4.91-1.29-10-3.39-14.64a3.49,3.49,0,0,1-.41-2.68c1.72-4.23-1.35-8.25-.43-12.45.37-1.71-1.1-1.52-2.11-1.49a8.29,8.29,0,0,1-6.22-2.16c-2.37-2.15-5.57-1.52-8.07-.89-11.16,2.82-22.82,2.11-33.95,5-2,.52-4.23-.11-6.36-.2-4.8-.19-6,1.6-4.74,6.13,2.41,8.84,8,16,12.46,23.69A184.11,184.11,0,0,1,605,302.82c1.33,3.82,4.31,6.6,5.58,10.49,1.6,4.91,3.64,9.71,4.54,14.81.95,5.41,3.1,10.43,4.53,15.68,4,14.79,1.43,22.75-9.59,32.65-4.5,4-10.57,2.55-15.88.85-7.05-2.25-11.16-7.48-14.49-14-1.81-3.58-4.58-6.91-6.92-10.34-3.47-5.1-5.45-10.67-7.29-16.39-.12-.38-.1-.91-.35-1.12-4.79-3.88-3.78-9.8-5.3-14.83a142.76,142.76,0,0,0-4.55-13.92c-1.66-4-2.08-8.35-5-12-1.37-1.69-1.64-5.41-1.35-8,.74-6.42-.7-12.64-.72-18.93,0-5.1,1.55-10.23,2.63-15.3,1-4.63.62-5.4-3.85-6.31-.63-.13-1.48-.31-1.79-.77-3.23-4.8-7.83-3.24-12.05-2.43a56.56,56.56,0,0,1-15,.82,174.79,174.79,0,0,0-20.61-.37c-2.5.11-5-.61-7.54-.35s-3,1.16-1.76,3.37c7,12.66,14.87,24.79,21.69,37.57a287.37,287.37,0,0,1,13.87,30.88c1.43,3.65,1.19,7.55,2,11.29.45,2,.41,4.12.84,6.22,2.1,10.32-10.24,20.94-20.18,17.47A10.61,10.61,0,0,1,503.9,348c-6.5-4.9-13.15-9.64-17.87-16.48-.23-.33-.68-.59-.73-.93-1-7.16-7-11.24-10.45-16.86-3.78-6.14-5.9-13.18-7.74-20.16-2.31-8.77-3.09-17.8-5.91-26.59-2-6.24-4.59-13.29-2.81-20.46.8-3.22-1-4.44-3.83-4.57-5.29-.24-10.56-.62-15.89-.08-4.6.47-9.26-.5-13.91-.7-14.18-.59-28.24-1.65-42.33-4.36-9.63-1.86-19.83-2.38-29.79-3.35-8.45-.82-16.87.16-25.29-.38-12.6-.82-25.21-2.56-37.79-2.37-12.91.2-26-.39-38.76,2.74-3.54.87-7.31.21-11,.88-7.58,1.37-15.37.8-23,.33-8.44-.52-16.67,1.13-25,1.37-5.39.15-10.51,3-15.62,2.66-6.32-.37-12,1.37-17.91,2.6-8.37,1.77-16.74,1.43-25.19,1.56-9,.13-17.49,4.13-26.33,5.76-12.29,2.28-23.43,8.22-35.67,10.7-4.14.84-7.86,3.64-11.28,6.29a14.32,14.32,0,0,1-14.54,2.3c-1.84-.66-3.46-1.71-3.51-3.85,0-1.86,1.16-2.89,2.8-3.93,8.73-5.54,18.42-8.75,28-12.5,9.26-3.64,18.79-6.28,28.19-9.36,10.56-3.46,21.66-4.18,32.71-5.17A237.24,237.24,0,0,0,160,229c3.69-.76,7.4-.7,11-1.05,15-1.47,30.13-3.85,45.21-3.07,9.49.49,18.78-1.17,28.23-.66,5.51.3,11-2.4,16.76-2.49,6.51-.1,13,0,19.53-.28,9.9-.46,19.74.93,29.62.68,4.63-.12,9.27.15,13.91.13,8.47,0,17-.22,25.35,1,5.24.79,10.6,0,15.74,1.53,2.67.82,5.22-.66,7.92-.26,8.33,1.24,16.66,2.57,25,3.33,7.32.67,14.72.5,22.07.91,9.4.53,18.78,1.32,28.18,1.9,3.8.23,4.53-.81,3.2-4.23a73.39,73.39,0,0,0-14.59-22.92A5.55,5.55,0,0,1,436,202c-3.8-10.17-11-17.95-18.26-25.63-1.57-1.66-.4-3.25-.94-4.78-2.65-7.42-1-15.22-2-22.8a10.41,10.41,0,0,1,3.15-9.12c2.94-2.49,6.8-4.3,11.18-3.24a38.83,38.83,0,0,1,23.56,16.23,92.13,92.13,0,0,1,13.86,29.45,35.13,35.13,0,0,0,2.25,5.1c3.87,8.71,5.13,17.94,5.8,27.35.32,4.49,1.33,8.93,1.86,13.41.26,2.16,1.32,2.88,3.38,3.07a166.57,166.57,0,0,0,22.24.84c7.65-.33,15.33,0,23,.16a44.68,44.68,0,0,0,10.25-1.45c1.5-.33,2.65-1.25,2.05-2.8-1.74-4.5-2.91-9.46-6.14-13s-5.17-8-7.05-12.28-3.24-8.63-7.74-11.19c-1.39-.79-2.27-2.91-2.86-4.6a42.32,42.32,0,0,0-7.7-13.26c-5.25-6.29-8-14.29-13.7-20.22a39.09,39.09,0,0,1-7.91-11.62c-3-7.05-5.61-14.29-8.1-21.54-1.63-4.75,0-9,2.69-13.09,4.24-6.28,9.33-11,17.5-11a28,28,0,0,1,15.06,4.32,72.61,72.61,0,0,1,20.26,19.65c5.88,8.49,11.53,17.4,15,27.61,3,8.68,6.56,17.28,10,25.88,2.53,6.41,3.06,13.58,5,20.24a22.55,22.55,0,0,1,.8,11.49,2.14,2.14,0,0,0,.73,2.18c3.31,2.51,3.35,6.76,5.34,10a9.53,9.53,0,0,1,1.39,8c-.82,2.9,2.08,5.81,5.14,5.46,6.2-.7,12.4-1.47,18.53-2.6a48.44,48.44,0,0,1,7.9-.45c6-.12,11.81-1.44,17.75-1.77,1.33-.07,2.78-.27,3.21-1.87s-.69-2.42-1.92-3.1c-2.53-1.41-3-4.29-4.63-6.36-3-3.84-6.77-7.05-9.61-10.86-2.49-3.35-5.22-6.46-7.81-9.71-4.9-6.16-10.08-12.05-15.33-17.92-6.31-7.05-11.39-15.1-13.54-24.62-.58-2.58-1.13-5.33-2.48-7.52-1.91-3.1-1.44-6.16-.9-9.25,1.62-9.26,5.55-17.68,9.71-26,2-4,6.11-6.25,9.54-5.82,11,1.35,21.61,4.83,30.57,11.56,7.08,5.32,10.9,13.13,13.82,21.47,1.24,3.55,3.71,6.63,5.06,10.31,1.48,4.06,1.58,8.32,2.16,12.38,1.24,8.61,4.28,16.68,6.08,25.1s5.21,16.76,4.19,25.78c-.44,3.9,1.88,7.64.44,11.81-.67,1.94,2,2.15,3.49,2,12-1.27,24-2.65,36.1-2.22,5.77.21,11.54-1.08,17.38-1,3.24.06,4.53-2.55,2.75-5.22a54.61,54.61,0,0,0-5.13-6.6c-3.8-4.13-5.45-9.55-8.64-14.1-2.07-3-3.71-6.32-5.91-9.34-5.5-7.56-10.23-15.72-16.18-22.87-3.06-3.67-6.23-7.13-8.26-11.45-3.3-7-7.77-13.77-9.34-21.15-1.81-8.51-2.3-17.47.14-26.4,1.66-6.08,5.36-11.28,6.43-17.5.86-5,5.43-6.39,8.86-8.77a30.3,30.3,0,0,0,3.15-2.26c5.54-5,9.21-5.36,16-2.19,5.9,2.77,10.23,7.08,13.94,12.36,5.79,8.22,9.92,17.34,14.44,26.21,2.16,4.24,1.95,9.67,4,14,4.74,9.87,4.69,20.8,7.79,31,3,9.9,5.43,20,7.43,30.09,1.28,6.48,2,13.08.22,19.69-.65,2.46-1.89,6,0,7.33s5.41.83,8-.58c2.05-1.11,4.44-1,6.57-1.3,7.87-1.23,15.08-4.68,23-6a54.61,54.61,0,0,0,17.44-6.15c1.26-.71,1.61-1.39.66-2.83-4.46-6.75-5.92-15-9.86-21.79-4.1-7.09-4.93-15.36-10.07-22.15-3.66-4.83-4.64-11.68-6.81-17.63a9,9,0,0,0-2.16-3.77c-5.38-5-7.59-11.79-11-17.95-2.23-4-5.65-7.45-7.73-11.63C737.93,88,737.22,74.85,745,61.9c1.83-3,13.09-7.67,16.66-7a23.79,23.79,0,0,0,2.74.59c8.14.56,13.54,4.68,16.77,12.18,1.23,2.85,3.43,5.29,5.28,7.85,4.68,6.49,6.2,14.29,9.21,21.47,3.68,8.78,4.92,18.2,8,27.15a126.6,126.6,0,0,1,5.76,27.07c.74,6.7,2,13.3,2.83,20,.74,6,3,11.77,2.31,18-.16,1.43,1,1.52,2.27,1.22,6-1.43,12.67-2.44,16.85-6.56,4.47-4.41,10.31-3.35,14.89-6.48,6.12-4.17,13.88-5,20.31-8.79,2.8-1.66,4.76-4.26,7-6.36,1.72-1.6.16-5.39-.86-7.82-1.92-4.58-3.77-9.41-8.67-11.94-1.31-.68-1.69-2.09-2-3.34-1.06-4-3.8-6.83-6.29-9.8-1.29-1.54-2.67-2.87-3-4.92-.93-5.4-6.4-7.21-9-11.5-5.54-9.23-11.75-18-16.64-27.7-1.55-3.05-1.39-6.35-2.22-9.43-1.63-6.06-3.9-12.06-4-18.61-.13-7.69,1-14.81,5.56-21.12,3-4.09,9.08-5.87,14.31-4.16,7.55,2.46,13.93,7.22,19.51,12.4a29,29,0,0,1,8,14.54c1.39,6.66,5.1,11.87,7.92,17.61,2.5,5.11,3.91,10.37,5.38,15.81,1.59,5.85,2.67,11.73,3.69,17.65,1.1,6.43,2.46,12.77,2.09,19.46-.23,4.23,1.25,8.49-.12,12.88-.51,1.65,1.84,3.17,1.61,5.47-.15,1.49,1.92.79,2.41.13,3.94-5.39,10.32-8.33,13.91-14.07,1.41-2.26,4.08-3.22,5.77-5.38,5.15-6.55,7.11-14.35,9-22.12a34.62,34.62,0,0,1,7.7-15.37c1.7-1.92,2.61-4.54,4-6.8,5.12-8.61,11.24-16.24,19.72-21.79,6-3.9,10.29-9.72,16.27-13.65,4.35-2.86,8.5-6.15,13.37-8,7.58-2.86,15.14-5.89,23.2-7.3a33.84,33.84,0,0,1,9.95.13c2.4.29,3.15,2.58,3.63,4.28,1.7,6,2.48,11.76.94,18.27-2.82,11.86-10.46,20.7-16.72,30.42-1.65,2.56-4.42,4.5-6.93,6.38-8.1,6-16.51,11.63-24.94,17.22-5.28,3.49-10.8,6.61-16.06,10.14-8,5.37-16.8,9.53-25.62,13.51-1.42.64-2.86-.12-4.3-.32-1.78-.25-4.13-1.4-5.32.1-4.79,6-10.85,10.68-16.22,16.05-1.31,1.31-.37,3.53-2.61,4.36-.67.25.81,1.82,1.79,2,5.77.94,10.54,4.64,16.1,5.92,14.38,3.33,27.29,10.53,41.09,15.42A52.61,52.61,0,0,1,985.43,195a35.41,35.41,0,0,0,4.9,4.61c4.21,3.72,6.13,11,4.51,16.39a27.1,27.1,0,0,1-11.7,15.51c-.54.34-1.29.83-1.79.69-7-2-14.24.71-21.31-1.92A88,88,0,0,1,941.35,220a40.21,40.21,0,0,0-10.15-5.37c-6.53-2.06-11-6.86-15.94-10.91a47.33,47.33,0,0,0-6.91-4.54c-4.94-2.75-7.75-8.12-12.88-10.41-3.87-1.74-6.45-4.64-9.36-7.48-2-1.93-5.36-2.56-8.24-3.33-.82-.22-2,.13-3-.29a3.15,3.15,0,0,0-3.41.28C870,179.19,872.36,180,871.6,181.59ZM843.15,357.3c-1.68-3.7,0-8.25-2.66-12-1.66-2.38-5.52-2.63-6.15-4.41-2-5.72-8.24-6.72-11.09-11.27-3.39-5.41-10.5-6.78-13.69-12.55-2.17-3.92-7.09-6-8.39-10.27-1.41-4.55-5.37-6.72-7.7-10.33a18.46,18.46,0,0,0-5.64-5.95c-4.76-2.85-8.45-7.2-13.39-9.84a2,2,0,0,1-.93-1.15c-1-5.3-4.57-9.44-8.22-12.47-5-4.19-8.51-9.15-11.63-14.62-.42-.73-.8-1.59-1.72-1.24a1.5,1.5,0,0,0-.52,2.39c3.79,5.58,5.44,12,6.91,18.38,1.32,5.8,4.75,10.39,7.75,15.33,5.7,9.4,13.3,17.25,20.27,25.6,4.28,5.14,9.27,9.68,13.73,14.68s9.14,10.06,14.14,14.67c3.95,3.64,8.13,7,12.25,10.48a34.14,34.14,0,0,0,14,7C842.35,360.12,843.23,359.44,843.15,357.3Zm87.76-242.09c.11,1-1.06,3.11.94,3.09a2.63,2.63,0,0,0,2.51-3.64c-.21-.76-.49-1.51-.68-2.28a1.93,1.93,0,0,1,1.3-2.49c4-1.9,7.18-5,11.25-6.94,5.7-2.65,10.39-7,15.69-10.37,7.15-4.52,14.8-8.46,20.21-15.12,3.45-4.25,9-5.88,12-10.54,1.71-2.63,3.15-5.49,5.69-7.54,1.33-1.07,3.25-1.42,4-3.18a5.78,5.78,0,0,1,5.81-3.93c2.39,0,2.79-1.42,2-3.51-1-2.75-5.64-4.07-8.83-2.12s-6.72,2.29-10.08,3.16c-6.16,1.58-11.2,5.18-16.46,8.28-2,1.15-4.28,2-6,3.74a162.06,162.06,0,0,1-12.74,12.09c-1.67,1.39-4.18,1.55-5.21,3.46-2.39,4.43-6.64,7.14-9.63,11.07C936.6,96.47,930.11,104.1,930.91,115.21Zm-263.69-1.79c-.61,2.13-1.33,3.93-.81,6.25a82.05,82.05,0,0,0,12,27.63,207.08,207.08,0,0,0,19.84,25.54c1.51,1.65,3.39,3.1,4,5.39a4.91,4.91,0,0,0,3.25,3.69.94.94,0,0,0,1.19-.79,6.55,6.55,0,0,0-1.31-4.89,3.11,3.11,0,0,0-.53-.59c-3.71-3.39-4.17-8.16-5.14-12.63-1.49-6.85-1.64-14-6.59-19.84-1.29-1.52-2.94-3.47-3.15-5.83-.69-7.91-4.81-14.82-6.56-22.49-1.54-6.74-5.32-13-8.19-19.39-1-2.15-2.55-2.85-4.33-.91a12.82,12.82,0,0,0-3.35,6.71C666.91,105.33,665.25,109.37,667.22,113.42ZM677.77,302a12.52,12.52,0,0,0-.9-5.64c-2.15-5.9-8.16-8.54-11.23-13.65-.73-1.21-2.36-2.78-4-1.47-1.35,1.07-.85,2.94-.35,4.5,1.64,5.16,3.39,10.3,4.93,15.49,3.29,11.14,5.28,22.68,12,32.66,4.89,7.3,9.61,14.73,14.49,22,2.88,4.32,7.58,6.36,11,10,3.23,3.38,5.22,2.28,6.47-2.32a11.67,11.67,0,0,1,.64-1.89c1.23-2.62.1-4.55-2.12-5.65-3.32-1.66-5-4.89-7.48-7.33-6-6-7.83-14.67-12.33-21.72a16.84,16.84,0,0,1-2.58-6.65,14.18,14.18,0,0,0-4-8.69C679.45,308.88,678.34,304.91,677.77,302Zm35.88-155.65c-1.59-4.09-.93-8.64-2.56-12.76s-3.64-8-4.17-12.22c-.7-5.55-3.33-10.29-6.27-14.34-4.12-5.67-6.63-12.24-11-17.68a8.53,8.53,0,0,0-3.75-2.78c-3.15-1.22-4,.52-2.93,2.77,1.27,2.79,1.76,5.77,2.93,8.56,2.55,6.07,5,12.19,7.28,18.36s3.43,12.63,6.52,18.18c4,7.26,7.79,14.33,8.46,22.79.41,5.24,4.24,9.32,5.63,14.24,2.87,10.16,5,20.47,4.4,31.13-.12,2,.85,3.6,1.5,5.3.46,1.21,2,1.59,2.41.28,1-2.84,3-5.55,2.36-8.69a104.62,104.62,0,0,1-2.38-13.63c-.39-5.33-2.33-10.26-3.6-15.38C716.51,162.51,713.89,154.63,713.65,146.32Zm-135-10.93a86.29,86.29,0,0,0,2.6,9.8c3,7.89,6.66,15.18,13.24,21.23s11.68,13.89,17.54,20.84c1.37,1.63,2.79,5.07,5.37,2.91,2.17-1.82-.83-3.89-1.78-5.76-1.71-3.4-4.92-5.86-6.12-9.55-1.46-4.5-2.34-9.24-4.25-13.54-3.07-6.9,0-16-7.52-21.24-.09-.06-.1-.24-.12-.38-1-5.75-5.18-10.11-6.93-15.58-.76-2.36-6.07-4.17-6.91-2.66C581.52,125.63,579.11,129.83,578.7,135.39Zm-51.44,30.92a11.12,11.12,0,0,0-4.42-10.66,8.2,8.2,0,0,1-2.13-3.15c-2.38-4.8-4.44-10-7.81-14-6.56-7.86-12.78-16-19-24.07-.61-.8-1.41-1.83-2.6-1.48s-1.43,1.6-1.57,2.6A17.28,17.28,0,0,0,492.3,127c3.78,5.77,7.18,11.78,11.28,17.41,6,8.18,12.48,16,16.64,25.63,3.29,7.62,9,14.21,13.59,21.24.61.93,1.14,2.5,2.62,1.6,1.32-.81,1.25-2.22.43-3.53-1.5-2.4-1.81-5.33-3-7.7s-.29-5.31-2.76-6.84C527.92,172.82,526.86,169.93,527.26,166.32Zm157,125.9a9.78,9.78,0,0,0,1.33,6A142.91,142.91,0,0,1,698.33,324c1.71,4.66,2.25,9.85,5.65,13.86,3.66,4.31,5,10.78,11.58,12.37.75.18,1.49.86,2.21.23s.39-1.57,0-2.51c-2.18-5.8-3.2-11.92-6.82-17.32-3.84-5.74-4.81-13.24-9.29-18.59s-6.86-12.08-10.92-17.74c-2.09-2.91-3.4-6.47-5.93-9.05a69.85,69.85,0,0,1-11.34-14.67c-3.93-7-8.27-13.75-14.09-19.41-.69-.67-1.46-1.54-2.36-.91s-.79,1.9-.12,2.85c2.39,3.38,3.25,7.92,7.66,9.79a3.61,3.61,0,0,1,1.53,2.22c.77,2.77,2.42,5,4.13,7.18,2.62,3.42,4.35,7.41,7.21,10.78,1.14,1.34,1.1,3.72,3.57,4.3C683.79,288,685.22,289.6,684.28,292.22Zm221-16.85c-.2-2.41-1.92-4.07-3.26-5.44-7.46-7.64-15.76-14.26-25.46-18.92-1.91-.92-4-1.49-5.68-2.86q-9-7.26-18.16-14.42c-4.52-3.55-8.6-7.88-14.36-9.42-3.45-.92-7.1-1-8.94-4.94-.28-.59-2-.92-2.85-.69s-.61,1.64,0,2c4.76,2.42,6.77,7.66,11.16,10.54,5.4,3.55,11.14,7,15.49,11.63,3.86,4.12,8.27,7.37,12.55,10.82a194.16,194.16,0,0,0,19.45,14.16c5.57,3.45,11.77,5.43,17.5,8.47C903.57,276.71,905.2,277.52,905.29,275.37Zm-340.55,9.78c.54,4.53.88,9.12,3.32,13.18a13.43,13.43,0,0,1,1.55,4c1.32,5.75,2.85,11.44,4.41,17.13,1.75,6.36,4,12.59,5.8,18.89,2.29,8.15,7.28,14.18,12.45,20.29a2.7,2.7,0,0,0,3.58.87,2.81,2.81,0,0,0,1.18-3.18c-1-2.71-.38-5.63-1.15-8.19s-.18-6.34-3.94-7.67c-.5-.18-.78-1.35-.9-2.11a44.81,44.81,0,0,0-2.39-8.75c-2.16-5.61-3.22-11.82-8.72-15.55-.78-.53-.46-1.5-.82-2.13-2.34-4.16-2.48-9.28-6.63-12.78a10.43,10.43,0,0,1-3.17-7.82,35.6,35.6,0,0,0-1.22-7.83c-.25-1.19-1.11-2.42-2.42-2.24s-.93,1.64-.93,2.66C564.74,284.36,564.74,284.75,564.74,285.15ZM971.53,219.5c-5.52-9.65-8.74-13.11-14.44-14.62a12.35,12.35,0,0,1-7.89-6,4.54,4.54,0,0,0-2.94-2.38c-5.81-1.61-11.54-3.39-15.75-8.2-.75-.85-2.41-.89-3.56-1.32-4.37-1.6-9.19-2.56-11.78-7.33-1.56-2.87-5.3-5.2-8.29-2.93-1.14.87-1.92,1.1-.5,2.54,4.63,4.66,8.79,9.82,14.78,12.93a14.75,14.75,0,0,1,3.88,2.69c4.38,4.57,8.75,8.78,15.14,10.91a30.32,30.32,0,0,1,8.68,5.21A39,39,0,0,0,971.53,219.5ZM776.12,263.91c2.39,4.82,4.12,10,8.49,13.56,4.88,4,10.29,7,14.49,12.34a173.56,173.56,0,0,0,11.63,13.77c4.89,5,7.84,11.73,14,16,2.18,1.51,3.83,4.1,6.23,5.78,1.06.74,2.42,1.47,3,3,1.39,3.76,4.86,5.55,7.91,7.69.62.43,1.44,1.14,2.16.6.87-.66.46-1.72.17-2.6-1-3-3-5.45-5-7.91-3.63-4.46-6.42-9.56-10.37-13.78-4.59-4.9-8.86-10-14.28-14.21-6.7-5.21-11.3-12.64-18-18.23S783.68,268.46,776.12,263.91ZM836.34,57.72c2.63,4.81,1.64,10.85,4.27,16,1.83,3.62,4.17,7.17,5,11a21.22,21.22,0,0,0,5.78,10,25.06,25.06,0,0,1,4.93,7.59,21.63,21.63,0,0,0,4.53,7.31,2.06,2.06,0,0,0,2.54.5c.92-.45.79-1.18.58-2-.56-2.25-.22-4.53-1.54-6.84a18.12,18.12,0,0,1-2.24-8.94,8.33,8.33,0,0,0-1.95-6.14,30.39,30.39,0,0,1-6.65-13.22c-.77-3.14-2.4-5.68-4.1-8.37C845.2,61,841.37,58,841.45,53c0-1.16-1.13-2.34-1.76-3.5-.5-.92-.9-2.19-2.27-1.63-1.13.46-1.22,1.77-1.12,2.79C836.5,52.85,837.43,55,836.34,57.72ZM606.12,358.4c2.31-2,3.35-3.86,2.88-6.79-1-6.27-3.07-12.27-4-18.6-1.43-10-7.31-18.52-10.81-27.86a244.83,244.83,0,0,0-10.65-23.41c-1.73-3.47-2.89-7.51-6.72-9.63-.86-.47-1.41-2-2.61-1s-.58,2.19-.07,3.29a40.8,40.8,0,0,1,3.23,10.23c1,5.81,4.23,10.75,6.93,15.88,4.76,9,11.23,17.27,13.76,27.39,1,4.15.35,8.68,2.87,12.54a7.38,7.38,0,0,1,1.51,3.62C602.79,348.92,604.58,353.44,606.12,358.4ZM508.8,329.54a7.65,7.65,0,0,0-2.88-6.72,10.56,10.56,0,0,1-4-8.22c-.24-6.8-2.64-12.55-8.48-16.53a5.93,5.93,0,0,1-1.26-1.5c-3.29-4.53-5.29-9.67-7.06-14.92a4.31,4.31,0,0,0-4.13-3.12c-1.12,0-1.54,1.1-1.35,2.06,1.1,5.69,1.6,11.49,3.27,17.09,3.9,13.07,13.07,22.85,20.68,33.62,1,1.38,1.95,2.9,3.63,2.39C509.1,333.13,508.68,331.08,508.8,329.54Zm124.66-118.1c1.74-3.72-2-5.33-.88-7.82,2.93-6.44-1.16-12.13-2.42-17.9-1.62-7.45-5.6-14.37-5.77-22.3a16.2,16.2,0,0,0-1.09-5.43c-1.54-4-2.82-8.17-4-12.32-2.33-8-7.55-14-12.89-20-.66-.74-1.61-1.74-2.71-.72-.91.85,0,1.67.42,2.48,2,4.13,4.46,8,6.31,12.31,1.25,2.9.39,5.76,1.31,8.54,1.91,5.78,4.71,11.24,5.94,17.28a15.34,15.34,0,0,0,2,5.09c5,8.09,8.28,16.94,7.18,26.56C626.06,203.54,630.8,206.35,633.46,211.44Zm352.4,1.64c.33-1.32-.74-1.77-1.12-2.56-1.23-2.58-5.13-2.78-5.71-5.15-1.54-6.34-7.06-8.78-11.28-12.27-7-5.79-16.4-7.16-24.06-11.85-4.9-3-11.36-1.66-15.75-6.05-1-1-3-.09-3.51.91-.86,1.56.9,2.11,2,2.14,3.37.1,5,5.06,9,3.18.16-.07.74.4.88.72,1.47,3.38,4.66,3.9,7.66,5,3.43,1.3,6.85,2.75,9,6.18,1.11,1.77,2.79,3.56,4.86,4,4,.82,6.64,3.63,9.52,6.05,1.88,1.58,4.73,2.2,5.45,4.94a6,6,0,0,0,4,4.07,9.41,9.41,0,0,1,3.43,2.55c1,1,1.36,3.39,3.52,2.45C985.59,216.6,984.94,214.28,985.86,213.07Zm-526.6-10.59c-.94-4.35-4.08-8.27-6.38-12.34-3.76-6.67-8-13.38-9-20.74-1-7.68-6.35-11.45-10.48-16.48-1.24-1.51-5.16-.8-5.36.81a17.69,17.69,0,0,0,.11,6.71c2.17,7.87,8.55,13.44,11.75,20.78.1.22.37.37.57.55,6.68,6.17,9.39,15,14.71,22.1.79,1.06,1.16,2.65,2.6,2.46C459.67,206.09,458.75,204.22,459.26,202.48Zm399.69,24.42c1,2.2,2.6,2.36,3.8,3a40,40,0,0,1,11.12,8.57,36.56,36.56,0,0,0,8.7,7.13c8.18,5,16.37,10,22.73,17.47,3,3.59,5,8.52,10.09,10.08,1.79.55,4.2,2.3,5.41.28,1-1.7-1.71-2.93-2.78-4.31-1.34-1.73-4.21-1.62-5.25-3.95-2-4.39-5.07-8-8.16-11.59-2.63-3-5-6.58-9.15-7.84-1.39-.42-3.19-.42-4.1-1.32A41.32,41.32,0,0,0,875.93,235C870.17,233,865.74,228.19,858.95,226.91ZM753.73,75.11c-1.47,4.62-.62,8.19.15,12.13a36.17,36.17,0,0,0,12,21.11c4.2,3.64,5.18,8.9,7.67,13.23s5.63,8.6,7.89,13.23c-.64-4.15-1.67-8.13-2.45-12.15-.33-1.69-.31-3.41-1.45-4.87a43,43,0,0,1-6.94-12.43A112,112,0,0,0,762,86C759.8,82.28,756.73,79,753.73,75.11Zm32.17,32c-.2-4.54-.76-9-3.51-12.8a28.29,28.29,0,0,1-4.85-9.92,18.08,18.08,0,0,0-5.78-9.3,13.65,13.65,0,0,1-3.42-4.28c-1.18-2.62-3-2.13-4.52-1.06-1.91,1.34.14,2.6.79,3.54,3,4.43,6.43,8.67,8.26,13.78A114.3,114.3,0,0,0,782.83,108c.5.82,1.09,1.64,2.18,1.4C786.28,109.13,785.88,108,785.9,107.14Zm115,64.46c-.26-.5-.5-1.53-.88-1.59-3.37-.54-4.71-3.66-7.1-5.41a3.11,3.11,0,0,0-2.58-.7c-1.56.34-2.24,1.49-1,2.48,3,2.33,6.2,4.37,9.37,6.44C899.89,173.58,900.75,173.22,900.91,171.6ZM920,281.43c2.38.07,3.73-.79,3.78-3.15,0-1.85-.89-3.34-2.66-3.19a3.83,3.83,0,0,0-3.62,3.45C917.4,280,917.81,281.85,920,281.43ZM869.66,85.62c-1.89,7.74-1.37,9.83,2.4,12.49Zm-72.4,78.76c.28-1.66-1.46-2.54-1.29-4.15.1-.93-.72-1.41-1.65-1.06-.78.29-1.34.77-1,1.82.44,1.24.68,2.55,1.07,3.8.32,1,0,2.88,1.68,2.57C797.5,167.12,796.93,165.36,797.27,164.38ZM1000,74.1a10,10,0,0,0,4-5.78A7.45,7.45,0,0,0,1000,74.1Z"/><path d="M866.93,188.17c-.28,1.62-1.27,1.45-2.15,1.24s-2.39.07-2.25-1.5c.13-1.39,1.72-1.87,2.6-2C866.62,185.69,865.84,187.85,866.93,188.17Z"/></g></svg>